:FULLY-SPECIFIED
:FORCE-ALL-JOINTS-BE-3DOF
:DEGREES
1020
root 0.249929 13.5522 -35.3933 372.22 -28.3135 342.333
lfemur -69.9039 36.0258 -4.05211
ltibia 82.2528 0 0
lfoot -12.7868 -8.35628 0
ltoes -6.14048 0 0
rfemur 10.1874 -8.65927 8.61803
rtibia 36.4421 0 0
rfoot -22.5461 -26.1572 0
rtoes -31.6576 0 0
lowerback 10.2884 -0.831942 5.4246
upperback -1.75992 0.106379 8.16996
thorax -7.70937 -0.0240379 5.68264
lowerneck -5.17734 8.32013 3.45765
upperneck 7.9899 10.9379 -0.9544
head 3.78148 5.47745 -0.355274
lclavicle -1.01792e-013 3.95465e-014 0
lhumerus 83.4566 -9.76603 26.9347
lradius 95.9745 0 0
lwrist 10.2125 0 0
lhand -36.7579 30.6416 0
lfingers 7.12502 0 0
lthumb -9.84119 60.3934 0
rclavicle -1.01792e-013 3.95465e-014 0
rhumerus -77.4105 22.905 -94.977
rradius 112.027 0 0
rwrist -63.1457 0 0
rhand -10.2732 -25.2197 0
rfingers 7.12502 0 0
rthumb 15.7205 -54.6011 0
1021
root 0.248651 13.5484 -35.3853 372.233 -28.2902 342.336
lfemur -69.9551 36.0459 -4.07944
ltibia 82.3266 0 0
lfoot -12.8424 -8.38248 0
ltoes -6.12025 0 0
rfemur 10.2314 -8.66088 8.61044
rtibia 36.3988 0 0
rfoot -22.5408 -26.1668 0
rtoes -31.654 0 0
lowerback 10.2652 -0.830559 5.3964
upperback -1.77715 0.103956 8.17021
thorax -7.71449 -0.0238516 5.69938
lowerneck -5.13807 8.33085 3.43353
upperneck 7.98786 10.9563 -0.962212
head 3.77246 5.4858 -0.354785
lclavicle -9.95362e-014 4.01197e-014 0
lhumerus 83.4253 -9.18353 27.1418
lradius 95.706 0 0
lwrist 10.0805 0 0
lhand -36.7538 30.509 0
lfingers 7.12502 0 0
lthumb -9.83718 60.2608 0
rclavicle -9.95362e-014 4.01197e-014 0
rhumerus -77.4491 22.9667 -95.0054
rradius 112.008 0 0
rwrist -63.1621 0 0
rhand -10.265 -25.1814 0
rfingers 7.12502 0 0
rthumb 15.7284 -54.5622 0
1022
root 0.247372 13.5447 -35.3773 372.247 -28.2674 342.339
lfemur -70.005 36.0655 -4.105
ltibia 82.3997 0 0
lfoot -12.8972 -8.409 0
ltoes -6.09807 0 0
rfemur 10.2743 -8.66337 8.60277
rtibia 36.3576 0 0
rfoot -22.5369 -26.1757 0
rtoes -31.6491 0 0
lowerback 10.2425 -0.829515 5.36907
upperback -1.79379 0.101194 8.17058
thorax -7.71926 -0.023872 5.71581
lowerneck -5.0963 8.34116 3.4106
upperneck 7.98374 10.9743 -0.971651
head 3.76244 5.49393 -0.355196
lclavicle -9.6995e-014 4.07228e-014 0
lhumerus 83.394 -8.62404 27.3512
lradius 95.435 0 0
lwrist 9.9572 0 0
lhand -36.7453 30.3842 0
lfingers 7.12502 0 0
lthumb -9.82905 60.1363 0
rclavicle -9.6995e-014 4.07228e-014 0
rhumerus -77.4871 23.0274 -95.0334
rradius 111.99 0 0
rwrist -63.1787 0 0
rhand -10.2566 -25.1449 0
rfingers 7.12502 0 0
rthumb 15.7365 -54.5251 0
1023
root 0.246094 13.5409 -35.3693 372.26 -28.2457 342.342
lfemur -70.0531 36.0845 -4.1285
ltibia 82.4719 0 0
lfoot -12.9511 -8.43521 0
ltoes -6.0747 0 0
rfemur 10.3158 -8.66673 8.5947
rtibia 36.3191 0 0
rfoot -22.5347 -26.1838 0
rtoes -31.6424 0 0
lowerback 10.2205 -0.828726 5.34277
upperback -1.80961 0.0982069 8.17092
thorax -7.72353 -0.0240552 5.73164
lowerneck -5.05237 8.35082 3.38938
upperneck 7.97732 10.9915 -0.982764
head 3.75143 5.50165 -0.356619
lclavicle -9.41963e-014 4.13914e-014 0
lhumerus 83.3632 -8.08539 27.5625
lradius 95.1632 0 0
lwrist 9.84244 0 0
lhand -36.7331 30.2682 0
lfingers 7.12502 0 0
lthumb -9.81726 60.0206 0
rclavicle -9.41963e-014 4.13914e-014 0
rhumerus -77.5239 23.0862 -95.0607
rradius 111.973 0 0
rwrist -63.1954 0 0
rhand -10.2481 -25.1107 0
rfingers 7.12502 0 0
rthumb 15.7447 -54.4902 0
1024
root 0.244816 13.5371 -35.3614 372.272 -28.2254 342.345
lfemur -70.0987 36.1031 -4.14965
ltibia 82.5432 0 0
lfoot -13.0043 -8.46051 0
ltoes -6.05093 0 0
rfemur 10.3555 -8.67096 8.58594
rtibia 36.2839 0 0
rfoot -22.5346 -26.1907 0
rtoes -31.6336 0 0
lowerback 10.1993 -0.82811 5.31765
upperback -1.8244 0.095107 8.17107
thorax -7.72711 -0.0243569 5.74658
lowerneck -5.00661 8.35958 3.37043
upperneck 7.96837 11.0075 -0.995597
head 3.73944 5.50879 -0.359166
lclavicle -9.11677e-014 4.21609e-014 0
lhumerus 83.3331 -7.56543 27.7747
lradius 94.8927 0 0
lwrist 9.73611 0 0
lhand -36.7176 30.1618 0
lfingers 7.12502 0 0
lthumb -9.80224 59.9147 0
rclavicle -9.11677e-014 4.21609e-014 0
rhumerus -77.559 23.1423 -95.087
rradius 111.956 0 0
rwrist -63.212 0 0
rhand -10.2396 -25.0793 0
rfingers 7.12502 0 0
rthumb 15.7529 -54.4582 0
1025
root 0.243537 13.5334 -35.3534 372.284 -28.2072 342.347
lfemur -70.1414 36.1213 -4.16813
ltibia 82.6134 0 0
lfoot -13.0568 -8.48428 0
ltoes -6.02754 0 0
rfemur 10.3931 -8.67607 8.57617
rtibia 36.2526 0 0
rfoot -22.5369 -26.1962 0
rtoes -31.6223 0 0
lowerback 10.179 -0.827581 5.29388
upperback -1.83791 0.092007 8.17085
thorax -7.72985 -0.0247332 5.76032
lowerneck -4.95936 8.3672 3.35428
upperneck 7.95665 11.0219 -1.0102
head 3.72648 5.51518 -0.362948
lclavicle -8.79371e-014 4.30669e-014 0
lhumerus 83.3041 -7.06197 27.9874
lradius 94.6254 0 0
lwrist 9.63805 0 0
lhand -36.6991 30.066 0
lfingers 7.12502 0 0
lthumb -9.78445 59.8195 0
rclavicle -8.79371e-014 4.30669e-014 0
rhumerus -77.5917 23.1947 -95.1119
rradius 111.94 0 0
rwrist -63.2287 0 0
rhand -10.2311 -25.0513 0
rfingers 7.12502 0 0
rthumb 15.7611 -54.4295 0
1026
root 0.242259 13.5296 -35.3454 372.294 -28.1914 342.349
lfemur -70.1806 36.1393 -4.18367
ltibia 82.6826 0 0
lfoot -13.1087 -8.50592 0
ltoes -6.0053 0 0
rfemur 10.4284 -8.68203 8.56508
rtibia 36.2259 0 0
rfoot -22.5419 -26.2002 0
rtoes -31.6082 0 0
lowerback 10.1598 -0.827058 5.2716
upperback -1.84993 0.0890197 8.17011
thorax -7.73158 -0.0251398 5.77258
lowerneck -4.91096 8.37344 3.34146
upperneck 7.94191 11.0343 -1.02661
head 3.71258 5.52063 -0.368077
lclavicle -8.45321e-014 4.4145e-014 0
lhumerus 83.2766 -6.57287 28.1997
lradius 94.3631 0 0
lwrist 9.54814 0 0
lhand -36.6783 29.9817 0
lfingers 7.12502 0 0
lthumb -9.76432 59.7359 0
rclavicle -8.45321e-014 4.4145e-014 0
rhumerus -77.6216 23.2424 -95.135
rradius 111.925 0 0
rwrist -63.2452 0 0
rhand -10.2228 -25.027 0
rfingers 7.12502 0 0
rthumb 15.769 -54.4046 0
1027
root 0.24098 13.5258 -35.3374 372.303 -28.1785 342.351
lfemur -70.2158 36.1571 -4.19597
ltibia 82.7505 0 0
lfoot -13.1601 -8.52481 0
ltoes -5.98499 0 0
rfemur 10.461 -8.68886 8.55237
rtibia 36.2044 0 0
rfoot -22.55 -26.2023 0
rtoes -31.5907 0 0
lowerback 10.1418 -0.826455 5.25098
upperback -1.86021 0.0862578 8.16869
thorax -7.73214 -0.0255328 5.78306
lowerneck -4.86174 8.37805 3.33252
upperneck 7.92394 11.0443 -1.04488
head 3.69776 5.52497 -0.374664
lclavicle -8.09805e-014 4.54307e-014 0
lhumerus 83.2509 -6.09595 28.4109
lradius 94.1079 0 0
lwrist 9.46622 0 0
lhand -36.6555 29.9098 0
lfingers 7.12502 0 0
lthumb -9.7423 59.6649 0
rclavicle -8.09805e-014 4.54307e-014 0
rhumerus -77.6481 23.2846 -95.1559
rradius 111.912 0 0
rwrist -63.2616 0 0
rhand -10.2149 -25.007 0
rfingers 7.12502 0 0
rthumb 15.7767 -54.3841 0
1028
root 0.239702 13.522 -35.3295 372.311 -28.169 342.353
lfemur -70.2463 36.1747 -4.20472
ltibia 82.8171 0 0
lfoot -13.2109 -8.54034 0
ltoes -5.9674 0 0
rfemur 10.4907 -8.69655 8.53773
rtibia 36.1887 0 0
rfoot -22.5615 -26.2024 0
rtoes -31.5696 0 0
lowerback 10.1251 -0.82569 5.23218
upperback -1.86854 0.0838339 8.16643
thorax -7.73134 -0.0258679 5.79145
lowerneck -4.81203 8.38078 3.328
upperneck 7.90249 11.0516 -1.06505
head 3.68201 5.52802 -0.382821
lclavicle -7.73101e-014 4.69596e-014 0
lhumerus 83.2274 -5.62904 28.6205
lradius 93.8615 0 0
lwrist 9.39216 0 0
lhand -36.6312 29.8513 0
lfingers 7.12502 0 0
lthumb -9.71884 59.6073 0
rclavicle -7.73101e-014 4.69596e-014 0
rhumerus -77.6707 23.3204 -95.1743
rradius 111.899 0 0
rwrist -63.2778 0 0
rhand -10.2073 -24.9919 0
rfingers 7.12502 0 0
rthumb 15.7841 -54.3683 0
1029
root 0.238423 13.5183 -35.3215 372.318 -28.1634 342.354
lfemur -70.2718 36.1923 -4.20964
ltibia 82.8823 0 0
lfoot -13.2614 -8.55191 0
ltoes -5.95329 0 0
rfemur 10.517 -8.7051 8.52084
rtibia 36.1794 0 0
rfoot -22.5768 -26.2003 0
rtoes -31.5445 0 0
lowerback 10.1099 -0.824678 5.21535
upperback -1.87468 0.0818608 8.16316
thorax -7.72904 -0.0261012 5.79747
lowerneck -4.76218 8.38139 3.32843
upperneck 7.87732 11.0558 -1.08718
head 3.66537 5.52961 -0.39266
lclavicle -7.35486e-014 4.87671e-014 0
lhumerus 83.2064 -5.16999 28.8276
lradius 93.6259 0 0
lwrist 9.32582 0 0
lhand -36.6058 29.807 0
lfingers 7.12502 0 0
lthumb -9.69438 59.5641 0
rclavicle -7.35486e-014 4.87671e-014 0
rhumerus -77.6887 23.3488 -95.1899
rradius 111.888 0 0
rwrist -63.2936 0 0
rhand -10.2001 -24.982 0
rfingers 7.12502 0 0
rthumb 15.7909 -54.3579 0
1030
root 0.237145 13.5145 -35.3135 372.322 -28.1622 342.356
lfemur -70.2916 36.2099 -4.21042
ltibia 82.9461 0 0
lfoot -13.3115 -8.55889 0
ltoes -5.94344 0 0
rfemur 10.5397 -8.7145 8.50141
rtibia 36.1771 0 0
rfoot -22.5961 -26.1957 0
rtoes -31.515 0 0
lowerback 10.0963 -0.823336 5.20065
upperback -1.87841 0.0804512 8.15872
thorax -7.72506 -0.0261885 5.80081
lowerneck -4.71251 8.37963 3.33436
upperneck 7.84821 11.0565 -1.1113
head 3.64785 5.52955 -0.404292
lclavicle -6.97237e-014 5.08889e-014 0
lhumerus 83.1883 -4.71662 29.0316
lradius 93.4031 0 0
lwrist 9.26705 0 0
lhand -36.5799 29.778 0
lfingers 7.12502 0 0
lthumb -9.66936 59.5361 0
rclavicle -6.97237e-014 5.08889e-014 0
rhumerus -77.7017 23.369 -95.2023
rradius 111.878 0 0
rwrist -63.3092 0 0
rhand -10.1936 -24.9779 0
rfingers 7.12502 0 0
rthumb 15.7972 -54.3533 0
1031
root 0.234983 13.5108 -35.3097 372.322 -28.1655 342.356
lfemur -70.3031 36.2294 -4.2038
ltibia 83.0066 0 0
lfoot -13.3619 -8.58246 0
ltoes -5.92372 0 0
rfemur 10.5585 -8.72664 8.47985
rtibia 36.1878 0 0
rfoot -22.6261 -26.186 0
rtoes -31.4754 0 0
lowerback 10.0826 -0.822903 5.18873
upperback -1.8796 0.0779298 8.15461
thorax -7.71823 -0.0269514 5.803
lowerneck -4.65733 8.37571 3.34754
upperneck 7.81389 11.0542 -1.1405
head 3.62826 5.52811 -0.419246
lclavicle -6.53373e-014 5.35002e-014 0
lhumerus 83.1709 -4.27975 29.2361
lradius 93.188 0 0
lwrist 9.21686 0 0
lhand -36.5487 29.7684 0
lfingers 7.12502 0 0
lthumb -9.63925 59.5278 0
rclavicle -6.53373e-014 5.35002e-014 0
rhumerus -77.7105 23.3816 -95.2112
rradius 111.871 0 0
rwrist -63.3223 0 0
rhand -10.1889 -24.9778 0
rfingers 7.12502 0 0
rthumb 15.8017 -54.3529 0
